<svg xmlns="http://www.w3.org/2000/svg" aria-hidden="true" style="position:absolute;width:0;height:0;overflow:hidden">
  <defs>
    <symbol id="icon-dollar" viewBox="0 0 21 32">
      <path d="M11.324 30.735v-2.756c2.319-.151 4.179-.836 5.579-2.056s2.101-2.839 2.101-4.856v-.271c0-1.867-.655-3.336-1.965-4.405s-3.215-1.754-5.715-2.056v-6.46c1.054.271 1.905.753 2.552 1.446s.971 1.536.971 2.53v.542h3.433v-.813c0-.843-.166-1.649-.497-2.417A7.166 7.166 0 0 0 16.38 7.06l.002.002a8.044 8.044 0 0 0-2.145-1.583l-.046-.021a9.765 9.765 0 0 0-2.81-.918l-.059-.008V1.641H8.069v2.801c-.983.094-1.886.31-2.737.634l.071-.024c-.843.316-1.581.738-2.214 1.265s-1.137 1.16-1.513 1.897c-.376.738-.565 1.589-.565 2.552v.271c0 1.807.595 3.215 1.784 4.224s2.914 1.664 5.173 1.965v7.364c-1.325-.301-2.349-.888-3.072-1.762s-1.084-2.033-1.084-3.479v-.542H.479v1.084c0 .873.151 1.739.452 2.598s.76 1.656 1.378 2.394c.617.738 1.4 1.37 2.349 1.897s2.086.896 3.411 1.107v2.846h3.253zm-3.252-16.76c-1.295-.241-2.191-.625-2.688-1.152s-.745-1.212-.745-2.056c0-.873.331-1.566.994-2.078s1.476-.843 2.44-.994v6.28zm3.252 10.752v-7.138c1.446.241 2.5.617 3.162 1.129s.994 1.295.994 2.349c0 1.024-.369 1.852-1.107 2.485s-1.754 1.024-3.049 1.175z"/>
    </symbol>
    <symbol id="icon-person" viewBox="0 0 26 32">
      <path d="M19.146 15.458c.812 0 1.568.14 2.252.418.684.28 1.278.66 1.762 1.138a7.115 7.115 0 0 1 1.228 1.64 9.83 9.83 0 0 1 .794 1.826l.02.072c.194.624.356 1.308.484 2.032.124.718.21 1.398.252 2.022.04.614.062 1.248.062 1.89 0 1.672-.518 3.024-1.536 4.02-1.008.984-2.34 1.484-3.96 1.484H5.496c-1.62 0-2.954-.5-3.96-1.484C.518 29.52 0 28.168 0 26.496c0-.644.02-1.28.064-1.89.04-.624.126-1.304.252-2.02.126-.726.288-1.41.484-2.034.2-.646.476-1.286.814-1.896a7.135 7.135 0 0 1 1.226-1.642 5.453 5.453 0 0 1 1.764-1.14 5.982 5.982 0 0 1 2.25-.416c.32 0 .626.134 1.22.53.366.246.794.528 1.272.842.408.268.96.518 1.644.744.666.22 1.342.334 2.01.334a6.387 6.387 0 0 0 2.057-.347l-.045.013c.682-.226 1.236-.476 1.644-.744l1.272-.84c.592-.4.9-.532 1.22-.532zM13.196 0c2.064 0 3.848.76 5.308 2.258s2.2 3.332 2.2 5.448c0 2.12-.74 3.952-2.2 5.45-1.46 1.5-3.246 2.26-5.308 2.26-2.06 0-3.848-.76-5.306-2.26-1.46-1.498-2.2-3.332-2.2-5.45 0-2.116.74-3.95 2.2-5.448C9.35.758 11.134 0 13.196 0z"/>
    </symbol>
    <symbol id="logo" viewBox="0 0 52 32">
      <path d="M3.982 10.354c.559 0 1.062-.071 1.508-.213s.825-.346 1.138-.612c.305-.258.548-.579.712-.943l.007-.017c.166-.375.249-.794.249-1.259v-.171c0-.872-.275-1.531-.825-1.977s-1.346-.763-2.389-.953a8.569 8.569 0 0 1-1.092-.258l.061.016c-.27-.085-.488-.183-.654-.292s-.282-.232-.348-.37a1.032 1.032 0 0 1-.1-.446v-.017.001c0-.332.137-.595.412-.789s.649-.292 1.124-.292c.559 0 .993.147 1.301.441s.462.64.462 1.038v.341h1.877v-.523a2.95 2.95 0 0 0-.242-1.175l.007.019a2.835 2.835 0 0 0-.695-.979L6.493.922c-.308-.284-.69-.51-1.145-.676s-.977-.249-1.564-.249c-.521 0-.993.071-1.415.213s-.782.341-1.081.597c-.299.256-.531.557-.697.903s-.249.723-.249 1.131v.085c0 .493.085.91.256 1.252.173.344.416.63.712.849l.006.005c.308.228.671.41 1.088.548s.877.249 1.38.334c.379.066.692.147.939.242s.441.201.583.32.242.251.299.398c.057.147.085.301.085.462 0 .341-.137.635-.412.882s-.697.37-1.266.37c-.73 0-1.268-.178-1.614-.533s-.519-.832-.519-1.429v-.341H.002v.427c0 .521.085 1.003.256 1.444.175.45.431.834.753 1.152.332.327.747.583 1.244.768s1.074.277 1.728.277zm13.037-.199V6.4h2.02c.512 0 .958-.085 1.337-.256.371-.164.686-.392.944-.673l.002-.002c.242-.268.435-.584.563-.933l.006-.02a3.19 3.19 0 0 0 .192-1.088v-.341c0-.36-.064-.713-.192-1.06a2.76 2.76 0 0 0-.57-.926l.001.002a2.803 2.803 0 0 0-.928-.647l-.018-.007C19.997.283 19.551.2 19.039.2h-3.897v9.956h1.877zm1.835-5.547h-1.835V1.991h1.835c.417 0 .747.114.988.341s.363.521.363.882v.171c0 .36-.121.654-.363.882s-.571.341-.988.341zm17.46 5.547V8.363h-4.523V.199h-1.877v9.956h6.4zm14.744 0V8.363h-2.389V1.991h2.389V.199h-6.656v1.792h2.389v6.372h-2.389v1.792h6.656zM4.779 31.488v-8.164h2.645v-1.792H.256v1.792h2.645v8.164h1.877zm14.63 0v-8.164h2.645v-1.792h-7.168v1.792h2.645v8.164h1.877zm16.962 0v-1.792h-4.58v-2.304h4.238V25.6h-4.238v-2.276H36.2v-1.792h-6.286v9.956h6.457zm9.922 0v-3.755h2.162c.275 0 .472.071.59.213s.178.327.178.555v2.987H51.1v-3.442c0-.332-.097-.607-.292-.825s-.457-.346-.789-.384v-.256c.455-.19.792-.462 1.01-.818.205-.324.327-.718.327-1.14V24.277a2.77 2.77 0 0 0-.206-1.067 2.594 2.594 0 0 0-.596-.874l-.001-.001c-.261-.251-.585-.448-.974-.59s-.839-.213-1.351-.213h-3.812v9.956h1.877zm1.792-5.547h-1.792v-2.617h1.792c.455 0 .801.121 1.038.363s.356.529.356.86v.171c0 .389-.119.69-.356.903s-.583.32-1.038.32z"/>
    </symbol>
  </defs>
</svg>